<svg width="268" height="268" viewBox="0 0 268 268" fill="none" xmlns="http://www.w3.org/2000/svg">
<g clip-path="url(#clip0_1565_3317)">
<g clip-path="url(#clip1_1565_3317)">
<path d="M0 133.581C0 59.806 59.806 0 133.581 0C207.357 0 267.163 59.806 267.163 133.581C267.163 207.357 207.357 267.163 133.581 267.163C59.806 267.163 0 207.357 0 133.581ZM133.581 257.075C201.785 257.075 257.075 201.785 257.075 133.581C257.075 65.3783 201.785 10.0879 133.581 10.0879C65.3783 10.0879 10.0879 65.3783 10.0879 133.581C10.0879 201.785 65.3783 257.075 133.581 257.075Z" fill="#4281FF"/>
<g clip-path="url(#clip2_1565_3317)">
<g clip-path="url(#clip3_1565_3317)">
<path d="M204.587 87.2354C202.234 67.4343 198.658 64.4017 178.716 62.6458C154.34 60.5 129.948 60.992 105.556 61.5017C97.2817 61.6733 88.9767 62.5763 80.7753 63.7592C68.6432 65.5118 65.1396 68.8746 63.4599 81.0553C59.8592 107.161 59.8851 133.354 63.3854 159.462C64.3596 166.734 66.3711 171.304 70.1854 174.004C70.2145 174.022 70.2437 174.043 70.2728 174.064C70.6013 174.29 70.9379 174.507 71.2923 174.709C74.3994 176.562 78.5745 177.562 84.2255 178.129C87.5332 178.46 90.8458 178.747 94.1568 178.985C92.3832 185.257 90.6144 191.531 88.8311 197.797C88.1288 200.275 86.7807 202.888 89.3004 205.008C92.1825 207.431 94.6148 205.273 97.0406 203.843C99.0541 202.658 101.058 201.457 103.052 200.241C112.357 194.559 121.735 188.994 130.925 183.131C134.592 180.797 138.332 179.731 142.637 179.771C156.143 179.889 169.617 179.323 183.066 177.967C197.517 176.507 202.419 172.33 204.058 157.915C206.735 134.398 207.397 110.818 204.587 87.2354ZM129.521 142.681L103.37 120.395L115.071 108.694L129.505 123.935L160.323 90.7875L172.008 102.486L129.521 142.681Z" fill="#4281FF"/>
</g>
</g>
</g>
</g>
<defs>
<clipPath id="clip0_1565_3317">
<rect width="267.163" height="267.163" fill="white"/>
</clipPath>
<clipPath id="clip1_1565_3317">
<rect width="267.163" height="267.163" fill="white"/>
</clipPath>
<clipPath id="clip2_1565_3317">
<rect width="145.644" height="145.039" fill="white" transform="translate(60.7598 61.0623)"/>
</clipPath>
<clipPath id="clip3_1565_3317">
<rect width="145.644" height="145.039" fill="white" transform="translate(60.7598 61.0623)"/>
</clipPath>
</defs>
</svg>
